/* XPM */
static char * close_inactive_hover_xpm[] = {
"21 21 93 2",
"  	c None",
". 	c #242321",
"+ 	c #242420",
"@ 	c #232220",
"# 	c #201F1D",
"$ 	c #1E1D1B",
"% 	c #1C1C1A",
"& 	c #242322",
"* 	c #201F1E",
"= 	c #232221",
"- 	c #686865",
"; 	c #8D8D8B",
"> 	c #AFAFAE",
", 	c #434340",
"' 	c #AAAAA8",
") 	c #C0C0BE",
"! 	c #272724",
"~ 	c #454442",
"{ 	c #BEBEBD",
"] 	c #2B2A28",
"^ 	c #292928",
"/ 	c #ABAAA9",
"( 	c #C2C2C1",
"_ 	c #C1C1C0",
": 	c #2E2D2B",
"< 	c #6E6E6C",
"[ 	c #BDBDBC",
"} 	c #555554",
"| 	c #6E6E6D",
"1 	c #565656",
"2 	c #3A3A37",
"3 	c #302F2E",
"4 	c #939290",
"5 	c #C3C3C2",
"6 	c #595959",
"7 	c #525252",
"8 	c #70706F",
"9 	c #3F3F3D",
"0 	c #323230",
"a 	c #B1B1B0",
"b 	c #464643",
"c 	c #373735",
"d 	c #BDBDBA",
"e 	c #BCBCB9",
"f 	c #6E6E6E",
"g 	c #4C4C49",
"h 	c #979794",
"i 	c #BFBFBD",
"j 	c #BBBBB8",
"k 	c #BAB9B6",
"l 	c #707070",
"m 	c #585858",
"n 	c #494846",
"o 	c #7B7B79",
"p 	c #B7B7B3",
"q 	c #B1B1AE",
"r 	c #575757",
"s 	c #AFAEA9",
"t 	c #494847",
"u 	c #565553",
"v 	c #4A4948",
"w 	c #A8A8A5",
"x 	c #B3B3AE",
"y 	c #AFAFAA",
"z 	c #AAA9A4",
"A 	c #AAAAA4",
"B 	c #A6A69F",
"C 	c #5F5F5C",
"D 	c #555552",
"E 	c #63635F",
"F 	c #B0AFAA",
"G 	c #ABAAA4",
"H 	c #A6A59F",
"I 	c #A3A29B",
"J 	c #A1A098",
"K 	c #656562",
"L 	c #545451",
"M 	c #646461",
"N 	c #9B9B95",
"O 	c #A2A19A",
"P 	c #9E9D95",
"Q 	c #9B9A91",
"R 	c #6B6B68",
"S 	c #60605D",
"T 	c #565655",
"U 	c #767671",
"V 	c #83837B",
"W 	c #88877F",
"X 	c #73736F",
"Y 	c #6E6E6B",
"Z 	c #646462",
"` 	c #5A5A57",
" .	c #787875",
"                                          ",
"                . . . .                   ",
"          + @ # $ % % $ # @ +             ",
"        & * = - ; > > ; - = * &           ",
"      & $ , ' ) ) ) ) ) ) ' , $ &         ",
"    ! @ ~ { ) ) ) ) ) ) ) ) { ~ @ !       ",
"    ] ^ / ) ) ( _ ) ) _ ( ) ) / ^ ]       ",
"    : < ) ) [ } | _ _ | 1 [ ) ) < :       ",
"  2 3 4 ) ) 5 6 7 8 8 7 6 5 ) ) 4 3 2     ",
"  9 0 a ) ) ) 5 6 7 7 6 5 ) ) ) a 0 9     ",
"  b c a ) ) d e f 7 7 f e d ) ) a c b     ",
"  g 9 h i j k l 7 m m 7 l k j i h 9 g     ",
"    n o j p q 7 r s s r 7 q p j o t       ",
"    u v w x y z A B B A z y x w v u       ",
"    C D E F G H I J J I H G F E D C       ",
"      K L M N O P Q Q P O N M L K         ",
"        R S T U V W W V U T S R           ",
"          X Y Z C ` ` C Z Y X             ",
"                 . . . .                  ",
"                                          ",
"                                          "};
