/* XPM */
static char * close_inactive_xpm[] = {
"21 21 42 1",
" 	c None",
".	c #3C3B37",
"+	c #474641",
"@	c #4F4E49",
"#	c #55544F",
"$	c #5B5A54",
"%	c #403F3B",
"&	c #56554F",
"*	c #5C5B55",
"=	c #5A5954",
"-	c #575650",
";	c #5D5C56",
">	c #484742",
",	c #504F4A",
"'	c #54534D",
")	c #55544E",
"!	c #4E4D48",
"~	c #2A2A27",
"{	c #2B2B27",
"]	c #4D4C47",
"^	c #5B5A56",
"/	c #45443F",
"(	c #5B5A55",
"_	c #5F5E58",
":	c #44443F",
"<	c #272723",
"[	c #43423E",
"}	c #5E5D57",
"|	c #5C5B56",
"1	c #42423D",
"2	c #4A4944",
"3	c #53524D",
"4	c #53524C",
"5	c #494843",
"6	c #5A5953",
"7	c #5E5D58",
"8	c #42413C",
"9	c #403F3A",
"0	c #605F59",
"a	c #585751",
"b	c #5F5E59",
"c	c #62615B",
"                     ",
"                     ",
"        .....        ",
"      .+@#$#@+.      ",
"     %&*******&%     ",
"    %=*********=%    ",
"   .-;*********;-.   ",
"   >;**#@***,'**;>   ",
"  .);**!~@*,{]**;).  ",
"  .^****!~/{]****(.  ",
"  ._*****:<[*****}.  ",
"  .|****,{1~@*****.  ",
"  .&;**,{]*@~@**;&.  ",
"   2_**3!***@4**_5   ",
"   .6}*********7&.   ",
"    8}_*******_}%    ",
"     9&0}|*|}0&9     ",
"      .5abcba5.      ",
"        .....        ",
"                     ",
"                     "};
