/* XPM */
static char * close_active_hover_xpm[] = {
"21 21 115 2",
"  	c None",
". 	c #3A3935",
"+ 	c #393835",
"@ 	c #393834",
"# 	c #8A5D4F",
"$ 	c #C07861",
"% 	c #E0886E",
"& 	c #F79477",
"* 	c #55453D",
"= 	c #DE8368",
"- 	c #F88F6F",
"; 	c #F78D6C",
"> 	c #F78B6A",
", 	c #F68968",
"' 	c #5B463E",
") 	c #EC8668",
"! 	c #F58563",
"~ 	c #F37F5B",
"{ 	c #57443C",
"] 	c #3C3A35",
"^ 	c #D9785A",
"/ 	c #F07B56",
"( 	c #EE744D",
"_ 	c #F17C57",
": 	c #D77557",
"< 	c #3B3934",
"[ 	c #865341",
"} 	c #EF7750",
"| 	c #EB6B40",
"1 	c #D5613A",
"2 	c #C15835",
"3 	c #C55A36",
"4 	c #D15F39",
"5 	c #855341",
"6 	c #C5684A",
"7 	c #EB6C42",
"8 	c #E9673B",
"9 	c #BE5937",
"0 	c #4C2518",
"a 	c #BF5531",
"b 	c #C35732",
"c 	c #4E2618",
"d 	c #BA5836",
"e 	c #E2704B",
"f 	c #E96538",
"g 	c #E86336",
"h 	c #EA6F46",
"i 	c #C17257",
"j 	c #4C2517",
"k 	c #9F4527",
"l 	c #4E2518",
"m 	c #BD6F55",
"n 	c #EA7047",
"o 	c #E1704B",
"p 	c #EC6F46",
"q 	c #E65F31",
"r 	c #E86C41",
"s 	c #A05B44",
"t 	c #401F14",
"u 	c #9C5942",
"v 	c #E86D43",
"w 	c #E66032",
"x 	c #E96E46",
"y 	c #DF663F",
"z 	c #E65C2F",
"A 	c #E55B2D",
"B 	c #C04E27",
"C 	c #9A5842",
"D 	c #BC4C27",
"E 	c #E65D2F",
"F 	c #DD653E",
"G 	c #BA5937",
"H 	c #E55C2D",
"I 	c #E35828",
"J 	c #BF4B24",
"K 	c #4E2517",
"L 	c #BB694D",
"M 	c #E77047",
"N 	c #C16D51",
"O 	c #4C2417",
"P 	c #BB4A23",
"Q 	c #7D4632",
"R 	c #E25424",
"S 	c #C9542E",
"T 	c #BC694C",
"U 	c #E56337",
"V 	c #E46134",
"W 	c #C06B4F",
"X 	c #C7552E",
"Y 	c #E55B2E",
"Z 	c #794533",
"` 	c #3C3834",
" .	c #C7542D",
"..	c #E35526",
"+.	c #E15120",
"@.	c #E35A2B",
"#.	c #E35F32",
"$.	c #E35E31",
"%.	c #E35B2C",
"&.	c #E35626",
"*.	c #B24F2D",
"=.	c #533C31",
"-.	c #D45326",
";.	c #E25221",
">.	c #E04E1C",
",.	c #4B3B33",
"'.	c #483B33",
").	c #AD4925",
"!.	c #E0501E",
"~.	c #E04E1B",
"{.	c #DF4D1A",
"].	c #DF4C19",
"^.	c #703E2A",
"/.	c #AF4721",
"(.	c #D24B1C",
"                                          ",
"                                          ",
"                . + + + .                 ",
"            @ # $ % & % $ # @             ",
"          * = - ; > , > ; - = *           ",
"        ' ) ! ~ ~ ~ ~ ~ ~ ~ ! ) {         ",
"      ] ^ / ( ( ( ( ( ( ( ( ( _ : <       ",
"      [ } | | 1 2 | | | 3 4 | | } 5       ",
"    + 6 7 8 8 9 0 a 8 b c d 8 8 7 6 +     ",
"    @ e f g g h i j k l m n g g f o @     ",
"    @ p q q q q r s t u v q q q w x @     ",
"    @ y z A A A B c C 0 D A A A E F @     ",
"    + G H I I J K L M N O P I I H G +     ",
"      Q A R R S T U R V W X R R Y Z       ",
"      `  ...+.@.#.+.+.+.$.%.+.&.*.+       ",
"        =.-.;.>.>.>.>.>.>.>.;.-.,.        ",
"        . '.).!.~.{.].{.~.!.).'..         ",
"            + ^./.(.{.(./.^.+             ",
"                + @ @ @ +                 ",
"                                          ",
"                                          "};
