/* XPM */
static char * close_pressed_xpm[] = {
"21 21 56 1",
" 	c None",
".	c #3C3B37",
"+	c #774B3B",
"@	c #A5583D",
"#	c #C86240",
"$	c #EA6C42",
"%	c #514138",
"&	c #CA6340",
"*	c #EE6D42",
"=	c #534138",
"-	c #DF6A42",
";	c #EE6D43",
">	c #3E3C37",
",	c #CA6441",
"'	c #EE6E43",
")	c #794D3C",
"!	c #D7633C",
"~	c #C35A37",
"{	c #C75C38",
"]	c #D3613B",
"^	c #BA5F41",
"/	c #C15936",
"(	c #4C2517",
"_	c #4E2518",
":	c #BD5735",
"<	c #DF6B44",
"[	c #A24B2E",
"}	c #DD6A44",
"|	c #EE7046",
"1	c #A04A2D",
"2	c #401F14",
"3	c #9C482C",
"4	c #EA6F46",
"5	c #DF6C45",
"6	c #9A472C",
"7	c #DD6B45",
"8	c #BB6142",
"9	c #7E4F3D",
"0	c #EE6F45",
"a	c #D1603A",
"b	c #BF5836",
"c	c #CF5F3A",
"d	c #7A4E3D",
"e	c #CD6845",
"f	c #B66043",
"g	c #56433A",
"h	c #DD6C47",
"i	c #4E4139",
"j	c #4C4039",
"k	c #B66144",
"l	c #ED7047",
"m	c #EE6E44",
"n	c #794D3D",
"o	c #BB6244",
"p	c #DF6E48",
"q	c #ED7249",
"                     ",
"                     ",
"        .....        ",
"      .+@#$#@+.      ",
"     %&*******&%     ",
"    =-;*******;-=    ",
"   >,;*********',>   ",
"   )'**!~***{]**')   ",
"  .^'**/(~*{_:**'^.  ",
"  .<****/([_:****}.  ",
"  .|*****123*****4.  ",
"  .5****{_6(~****7.  ",
"  .8'**{_:*~(~**'8.  ",
"   90**ab***~c**|d   ",
"   >e0*********0f.   ",
"    gh0*******0hi    ",
"     jklm;*;mlkj     ",
"      .nopqpon.      ",
"        .....        ",
"                     ",
"                     "};
