/* XPM */
static char * hide_inactive_xpm[] = {
"21 21 31 1",
" 	c None",
".	c #3C3B37",
"+	c #474641",
"@	c #4F4E49",
"#	c #55544F",
"$	c #5B5A54",
"%	c #403F3B",
"&	c #56554F",
"*	c #5C5B55",
"=	c #5A5954",
"-	c #575650",
";	c #5D5C56",
">	c #484742",
",	c #55544E",
"'	c #5B5A56",
")	c #5B5A55",
"!	c #5F5E58",
"~	c #3A3935",
"{	c #5E5D57",
"]	c #5C5B56",
"^	c #4A4944",
"/	c #494843",
"(	c #5A5953",
"_	c #5E5D58",
":	c #565550",
"<	c #42413C",
"[	c #575651",
"}	c #605F59",
"|	c #585752",
"1	c #61605A",
"2	c #62615B",
"                     ",
"                     ",
"        .....        ",
"      .+@#$#@+.      ",
"     %&*******&%     ",
"    %=*********=%    ",
"   .-;*********;-.   ",
"   >;***********;>   ",
"  .,;***********;,.  ",
"  .'*************).  ",
"  .!***~~~~~~~***{.  ",
"  .]**************.  ",
"  .&;***********;&.  ",
"   ^!***********!/   ",
"   .({*********_:.   ",
"    <!!*******!_%    ",
"     %[}{]*]{}[%     ",
"      .^|121|^.      ",
"        .....        ",
"                     ",
"                     "};
