/* XPM */
static char * hide_active_hover_xpm[] = {
"21 21 80 1",
" 	c None",
".	c #383733",
"+	c #6D6C69",
"@	c #959594",
"#	c #B2B2B2",
"$	c #CCCCCC",
"%	c #363532",
"&	c #4A4947",
"*	c #B1B1B0",
"=	c #CDCDCD",
"-	c #CBCBCB",
";	c #373632",
">	c #4D4C49",
",	c #C1C1C0",
"'	c #CACACA",
")	c #C9C9C9",
"!	c #4C4B48",
"~	c #3A3935",
"{	c #AFAFAE",
"]	c #C8C8C8",
"^	c #C7C7C7",
"/	c #C6C6C6",
"(	c #AEAEAD",
"_	c #6C6C69",
":	c #C5C5C5",
"<	c #C4C4C4",
"[	c #C3C3C3",
"}	c #6B6B69",
"|	c #373633",
"1	c #9F9E9D",
"2	c #C2C2C2",
"3	c #B9B8B8",
"4	c #C1C1C1",
"5	c #B7B7B7",
"6	c #BFBFBF",
"7	c #BDBDBD",
"8	c #BEBEBE",
"9	c #62615E",
"0	c #62625F",
"a	c #BCBCBC",
"b	c #AEAEAE",
"c	c #B9B9B9",
"d	c #BBBBBB",
"e	c #C0C0C0",
"f	c #B8B8B8",
"g	c #B6B6B6",
"h	c #ADADAC",
"i	c #8F8F8E",
"j	c #B1B1B1",
"k	c #B5B5B5",
"l	c #646360",
"m	c #ABABAB",
"n	c #ADADAD",
"o	c #AAAAAA",
"p	c #ACACAC",
"q	c #61605E",
"r	c #393834",
"s	c #939392",
"t	c #A5A5A5",
"u	c #A7A7A7",
"v	c #868584",
"w	c #474644",
"x	c #9B9A9A",
"y	c #9F9F9F",
"z	c #A0A0A0",
"A	c #A1A1A1",
"B	c #A3A3A3",
"C	c #A4A4A4",
"D	c #999999",
"E	c #43433F",
"F	c #42413E",
"G	c #7F7F7E",
"H	c #9B9B9B",
"I	c #9A9A9A",
"J	c #43423E",
"K	c #5A5958",
"L	c #7B7B7A",
"M	c #929292",
"N	c #959595",
"O	c #5A5A58",
"                     ",
"                     ",
"        .....        ",
"      .+@#$#@+.      ",
"    %&*=$$-$$=*&;    ",
"    >,'')))))'',!    ",
"   ~{)]^^///^^])(~   ",
"   _]/::<<[<<::/]}   ",
"  |1<[[[22222[[[<1.  ",
"  .342444444444245.  ",
"  .6786900000968aa.  ",
"  .b5cd42[<[2edfgh.  ",
"  .ij#kca868ack#ji.  ",
"  %lmmnjk5c5kjnopq   ",
"   rsttumnbnmuttv.   ",
"    wxyzABCBAzzDE    ",
"    ;FGHIIIIIHGJ;    ",
"      .KLMNMLO.      ",
"        |...|        ",
"                     ",
"                     "};
