/* XPM */
static char * hide_pressed_xpm[] = {
"21 21 33 1",
" 	c None",
".	c #3C3B37",
"+	c #4F4E49",
"@	c #5E5D57",
"#	c #696862",
"$	c #74736C",
"%	c #43423D",
"&	c #6A6962",
"*	c #75746D",
"=	c #43423E",
"-	c #71706A",
";	c #3D3C38",
">	c #6B6A63",
",	c #76756E",
"'	c #504F4A",
")	c #65645E",
"!	c #72716B",
"~	c #72716A",
"{	c #777670",
"]	c #3A3935",
"^	c #76756F",
"/	c #73726C",
"(	c #73726B",
"_	c #676660",
":	c #53524D",
"<	c #77766F",
"[	c #51504B",
"}	c #6E6D67",
"|	c #67665F",
"1	c #454440",
"2	c #74736D",
"3	c #787770",
"4	c #7A7972",
"                     ",
"                     ",
"        .....        ",
"      .+@#$#@+.      ",
"     %&*******&%     ",
"    =-*********-=    ",
"   ;>**********,>;   ",
"   ',***********,'   ",
"  .),***********,).  ",
"  .!*************~.  ",
"  .{***]]]]]]]***^.  ",
"  ./*************(.  ",
"  ._,***********,_.  ",
"   :<***********{[   ",
"   ;}<*********<|.   ",
"    1*<*******<2=    ",
"     =#3,***,3#=     ",
"      .:#343#:.      ",
"        .....        ",
"                     ",
"                     "};
