/* XPM */
static char * hide_active_xpm[] = {
"21 21 93 2",
"  	c None",
". 	c #383733",
"+ 	c #595854",
"@ 	c #74736E",
"# 	c #878682",
"$ 	c #989792",
"% 	c #363532",
"& 	c #42423E",
"* 	c #82817D",
"= 	c #94938D",
"- 	c #91908B",
"; 	c #8E8D89",
"> 	c #8C8B85",
", 	c #373632",
"' 	c #444340",
") 	c #8A8985",
"! 	c #8D8D86",
"~ 	c #888781",
"{ 	c #878780",
"] 	c #86857F",
"^ 	c #43423F",
"/ 	c #393834",
"( 	c #7E7D77",
"_ 	c #898881",
": 	c #84837D",
"< 	c #83827C",
"[ 	c #82817B",
"} 	c #81807A",
"| 	c #807F79",
"1 	c #84837C",
"2 	c #898882",
"3 	c #7D7C75",
"4 	c #55544F",
"5 	c #7F7E78",
"6 	c #7F7E77",
"7 	c #7E7D76",
"8 	c #7C7B74",
"9 	c #7B7A73",
"0 	c #7A7973",
"a 	c #54544F",
"b 	c #373633",
"c 	c #6E6E68",
"d 	c #7D7C76",
"e 	c #797871",
"f 	c #787770",
"g 	c #77766F",
"h 	c #76756E",
"i 	c #75746D",
"j 	c #797872",
"k 	c #7A7A73",
"l 	c #73726B",
"m 	c #74736C",
"n 	c #3A3935",
"o 	c #72716A",
"p 	c #797972",
"q 	c #71706B",
"r 	c #706F68",
"s 	c #71706A",
"t 	c #6F6F68",
"u 	c #706F6A",
"v 	c #605F5B",
"w 	c #6D6C66",
"x 	c #6C6B64",
"y 	c #6E6D66",
"z 	c #706F69",
"A 	c #4C4B46",
"B 	c #6B6A64",
"C 	c #686761",
"D 	c #696862",
"E 	c #6F6E67",
"F 	c #676660",
"G 	c #4A4945",
"H 	c #5F5F5A",
"I 	c #66655F",
"J 	c #64635D",
"K 	c #65655E",
"L 	c #6A6962",
"M 	c #595954",
"N 	c #3E3D3A",
"O 	c #61605A",
"P 	c #62615B",
"Q 	c #63625C",
"R 	c #62625C",
"S 	c #3D3C37",
"T 	c #3B3A37",
"U 	c #5F5E59",
"V 	c #5E5D58",
"W 	c #5D5C57",
"X 	c #3C3B37",
"Y 	c #454440",
"Z 	c #51514B",
"` 	c #595953",
" .	c #5A5A55",
"                                          ",
"                                          ",
"                . . . . .                 ",
"            . + @ # $ # @ + .             ",
"        % & * = - ; > ; - = * & ,         ",
"        ' ) ! ~ { ] ] ] { ~ ! ) ^         ",
"      / ( _ : < [ } | } [ < 1 2 3 /       ",
"      4 ] 5 6 7 8 9 0 9 8 7 6 5 ] a       ",
"    b c d 0 0 e f g g g f e 0 0 d c .     ",
"    . 0 g g h h h h i h h h h g g j .     ",
"    . k l l m n n n n n n n m l o p .     ",
"    . q r r s 0 9 8 8 8 9 0 s t r u .     ",
"    . v w x y z o l m l o r y x w v .     ",
"    % A B C D B y E r E y B D F B G       ",
"      / H I J K C D L D C K J I M .       ",
"        N O P O P Q J Q P O R v S         ",
"        , T 4 U V W W W V U 4 X ,         ",
"            . Y Z `  .` Z Y .             ",
"                b . . . b                 ",
"                                          ",
"                                          "};
