/* XPM */
static char * maximize_toggled_inactive_xpm[] = {
"21 21 43 1",
" 	c None",
".	c #3C3B37",
"+	c #44433F",
"@	c #504F4A",
"#	c #56554F",
"$	c #595853",
"%	c #51504A",
"&	c #45443F",
"*	c #3F3E39",
"=	c #53524D",
"-	c #5C5B55",
";	c #54534E",
">	c #403F3B",
",	c #595852",
"'	c #5A5953",
")	c #3F3E3A",
"!	c #55544F",
"~	c #5D5C56",
"{	c #575650",
"]	c #464540",
"^	c #484742",
"/	c #53524C",
"(	c #3A3935",
"_	c #595854",
":	c #5B5A55",
"<	c #5F5E58",
"[	c #575651",
"}	c #494844",
"|	c #4C4B46",
"1	c #5E5D57",
"2	c #5E5D58",
"3	c #3D3C38",
"4	c #42413D",
"5	c #605F59",
"6	c #43423E",
"7	c #41403C",
"8	c #585752",
"9	c #5C5B56",
"0	c #44433E",
"a	c #595953",
"b	c #62615B",
"c	c #5A5954",
"d	c #4D4C47",
"                     ",
"                     ",
"        .....        ",
"      .+@#$#%&.      ",
"     *=-------;>     ",
"    *,---------')    ",
"   .!~---------~{.   ",
"   ]~-----------~^   ",
"  ./~--.((((((--~!.  ",
"  ._---.-----.---:.  ",
"  .~---.-----.---<.  ",
"  .:---.-----.---~.  ",
"  .#~--.((((((--~[.  ",
"   }<-----------<|   ",
"   .'1---------2:3   ",
"    4<<-------<56    ",
"     78519-915~0     ",
"      .|abbbcd3      ",
"        .....        ",
"                     ",
"                     "};
