/* XPM */
static char * maximize_toggled_active_hover_xpm[] = {
"21 21 96 2",
"  	c None",
". 	c #383733",
"+ 	c #626260",
"@ 	c #9A9998",
"# 	c #B3B3B2",
"$ 	c #C5C4C4",
"% 	c #B4B4B3",
"& 	c #9D9D9C",
"* 	c #666562",
"= 	c #373632",
"- 	c #464541",
"; 	c #A6A6A5",
"> 	c #CDCDCD",
", 	c #CCCCCC",
"' 	c #CBCBCB",
") 	c #ACACAB",
"! 	c #4B4A47",
"~ 	c #474642",
"{ 	c #BBBBBA",
"] 	c #CACACA",
"^ 	c #C9C9C9",
"/ 	c #BFBFBF",
"( 	c #484745",
"_ 	c #A9A9A8",
": 	c #C8C8C8",
"< 	c #C7C7C7",
"[ 	c #C6C6C6",
"} 	c #AEAEAD",
"| 	c #3A3935",
"1 	c #646361",
"2 	c #C5C5C5",
"3 	c #C4C4C4",
"4 	c #C3C3C3",
"5 	c #6B6B69",
"6 	c #373633",
"7 	c #979796",
"8 	c #696865",
"9 	c #63625F",
"0 	c #A2A2A0",
"a 	c #B1B1B1",
"b 	c #C2C2C2",
"c 	c #696866",
"d 	c #B9B8B8",
"e 	c #B7B7B7",
"f 	c #BEBEBE",
"g 	c #C1C1C1",
"h 	c #BDBDBD",
"i 	c #ABABAA",
"j 	c #B9B9B9",
"k 	c #BCBCBC",
"l 	c #686765",
"m 	c #C0C0C0",
"n 	c #B2B2B2",
"o 	c #90908E",
"p 	c #B3B3B3",
"q 	c #B6B6B6",
"r 	c #666663",
"s 	c #61605D",
"t 	c #62615E",
"u 	c #61605E",
"v 	c #363532",
"w 	c #ABABAB",
"x 	c #AEAEAE",
"y 	c #BABABA",
"z 	c #ACACAC",
"A 	c #ADADAD",
"B 	c #6B6A68",
"C 	c #393834",
"D 	c #939392",
"E 	c #A6A6A6",
"F 	c #A8A8A8",
"G 	c #AFAFAF",
"H 	c #A9A9A9",
"I 	c #9A9999",
"J 	c #3B3A36",
"K 	c #4A4947",
"L 	c #9C9C9B",
"M 	c #A0A0A0",
"N 	c #A2A2A2",
"O 	c #A3A3A3",
"P 	c #A5A5A5",
"Q 	c #A4A4A4",
"R 	c #9E9E9E",
"S 	c #4D4C49",
"T 	c #444441",
"U 	c #838382",
"V 	c #9B9B9B",
"W 	c #9A9A9A",
"X 	c #919191",
"Y 	c #4D4C4A",
"Z 	c #605F5D",
"` 	c #818180",
" .	c #959595",
"..	c #949494",
"+.	c #636360",
"@.	c #3B3A37",
"                                          ",
"                                          ",
"                . . . . .                 ",
"            . + @ # $ % & * .             ",
"        = - ; > , , ' , , > ) ! =         ",
"        ~ { ] ] ^ ^ ^ ^ ^ ] ] / (         ",
"      . _ ^ : < < [ [ [ < < : ^ } |       ",
"      1 : [ [ 2 3 3 4 3 3 2 [ [ : 5       ",
"    6 7 2 3 4 8 9 9 9 9 9 9 4 3 2 0 .     ",
"    . a b b b c 3 3 3 3 3 c b b b d .     ",
"    . e f f / 8 g g g g g 8 / f h / .     ",
"    . i e j k l / m g m m l k j e n .     ",
"    . o a p q r s t t t u s q p n 7 6     ",
"    v 9 w w x q j k h k y e x z A B       ",
"      C D E E F z x G x z H E E I J       ",
"        K L M M N O P Q N M M R S         ",
"        = T U V W W W W W V X Y v         ",
"            . Z `  ... .U +.@.            ",
"                6 . . . 6                 ",
"                                          ",
"                                          "};
