/* XPM */
static char * maximize_inactive_hover_xpm[] = {
"21 21 97 2",
"  	c None",
". 	c #383733",
"+ 	c #626260",
"@ 	c #9A9998",
"# 	c #B3B3B2",
"$ 	c #C5C4C4",
"% 	c #B4B4B3",
"& 	c #9D9D9C",
"* 	c #666562",
"= 	c #373632",
"- 	c #464541",
"; 	c #A6A6A5",
"> 	c #CDCDCD",
", 	c #CCCCCC",
"' 	c #CBCBCB",
") 	c #ACACAB",
"! 	c #4B4A47",
"~ 	c #474642",
"{ 	c #BBBBBA",
"] 	c #CACACA",
"^ 	c #C9C9C9",
"/ 	c #BFBFBF",
"( 	c #484745",
"_ 	c #A9A9A8",
": 	c #C8C8C8",
"< 	c #C7C7C7",
"[ 	c #C6C6C6",
"} 	c #AEAEAD",
"| 	c #3A3935",
"1 	c #646361",
"2 	c #696966",
"3 	c #636260",
"4 	c #63625F",
"5 	c #636360",
"6 	c #6B6B69",
"7 	c #373633",
"8 	c #979796",
"9 	c #C5C5C5",
"0 	c #C4C4C4",
"a 	c #C3C3C3",
"b 	c #6A6966",
"c 	c #A2A2A0",
"d 	c #B1B1B1",
"e 	c #C2C2C2",
"f 	c #696866",
"g 	c #C1C1C1",
"h 	c #B9B8B8",
"i 	c #B7B7B7",
"j 	c #BEBEBE",
"k 	c #696865",
"l 	c #BDBDBD",
"m 	c #ABABAA",
"n 	c #B9B9B9",
"o 	c #BCBCBC",
"p 	c #686765",
"q 	c #C0C0C0",
"r 	c #B2B2B2",
"s 	c #90908E",
"t 	c #B3B3B3",
"u 	c #B6B6B6",
"v 	c #666663",
"w 	c #363532",
"x 	c #ABABAB",
"y 	c #AEAEAE",
"z 	c #646461",
"A 	c #5F5E5B",
"B 	c #605F5C",
"C 	c #5F5F5C",
"D 	c #ACACAC",
"E 	c #ADADAD",
"F 	c #6B6A68",
"G 	c #393834",
"H 	c #939392",
"I 	c #A6A6A6",
"J 	c #B0B0B0",
"K 	c #9A9999",
"L 	c #3B3A36",
"M 	c #4A4947",
"N 	c #9C9C9B",
"O 	c #A0A0A0",
"P 	c #A2A2A2",
"Q 	c #A3A3A3",
"R 	c #A5A5A5",
"S 	c #A4A4A4",
"T 	c #9E9E9E",
"U 	c #4D4C49",
"V 	c #444441",
"W 	c #838382",
"X 	c #9B9B9B",
"Y 	c #9A9A9A",
"Z 	c #919191",
"` 	c #4D4C4A",
" .	c #605F5D",
"..	c #818180",
"+.	c #959595",
"@.	c #949494",
"#.	c #3B3A37",
"                                          ",
"                                          ",
"                . . . . .                 ",
"            . + @ # $ % & * .             ",
"        = - ; > , , ' , , > ) ! =         ",
"        ~ { ] ] ^ ^ ^ ^ ^ ] ] / (         ",
"      . _ ^ : < < [ [ [ < < : ^ } |       ",
"      1 : [ [ 2 3 3 4 3 3 5 [ [ : 6       ",
"    7 8 9 0 a b 9 9 9 9 9 b a 0 9 c .     ",
"    . d e e e f g g g g g f e e e h .     ",
"    . i j j / k g g g g g k / j l / .     ",
"    . m i n o p / q g q q p o n i r .     ",
"    . s d t u v o / / / l v u t r 8 7     ",
"    w 4 x x y z A B B B A C y D E F       ",
"      G H I I D J r t r J E I I K L       ",
"        M N O O P Q R S P O O T U         ",
"        = V W X Y Y Y Y Y X Z ` w         ",
"            .  ...+.@.+.W 5 #.            ",
"                7 . . . 7                 ",
"                                          ",
"                                          "};
