/* XPM */
static char * maximize_active_xpm[] = {
"21 21 102 2",
"  	c None",
". 	c #383733",
"+ 	c #53524E",
"@ 	c #777671",
"# 	c #878782",
"$ 	c #94938E",
"% 	c #888782",
"& 	c #787773",
"* 	c #555450",
"= 	c #373632",
"- 	c #41403B",
"; 	c #7C7B77",
"> 	c #93928D",
", 	c #91908B",
"' 	c #8E8D89",
") 	c #8C8B85",
"! 	c #94938D",
"~ 	c #807F7A",
"{ 	c #43423E",
"] 	c #41403C",
"^ 	c #878681",
"/ 	c #8D8D86",
"( 	c #888781",
"_ 	c #878780",
": 	c #878680",
"< 	c #86857F",
"[ 	c #898884",
"} 	c #41403D",
"| 	c #7A7A74",
"1 	c #898881",
"2 	c #84837D",
"3 	c #83827C",
"4 	c #82817B",
"5 	c #81807A",
"6 	c #807F79",
"7 	c #898882",
"8 	c #7D7C75",
"9 	c #393834",
"0 	c #51504C",
"a 	c #7F7E78",
"b 	c #3E3D39",
"c 	c #3A3935",
"d 	c #54544F",
"e 	c #373633",
"f 	c #6B6A64",
"g 	c #7E7D76",
"h 	c #7B7A73",
"i 	c #7A7973",
"j 	c #7F7E77",
"k 	c #706F69",
"l 	c #76756F",
"m 	c #787770",
"n 	c #77766F",
"o 	c #76756E",
"p 	c #75746D",
"q 	c #777670",
"r 	c #73726B",
"s 	c #74736C",
"t 	c #6F6E69",
"u 	c #706F68",
"v 	c #72716A",
"w 	c #73726C",
"x 	c #605F5B",
"y 	c #6D6C66",
"z 	c #6C6B65",
"A 	c #6E6D67",
"B 	c #3E3D38",
"C 	c #64635E",
"D 	c #363532",
"E 	c #4C4B46",
"F 	c #686761",
"G 	c #6A6962",
"H 	c #3D3C38",
"I 	c #4E4D48",
"J 	c #5F5F5A",
"K 	c #66655F",
"L 	c #64645E",
"M 	c #6D6C67",
"N 	c #72716B",
"O 	c #61615B",
"P 	c #3F3E3B",
"Q 	c #61605C",
"R 	c #62625C",
"S 	c #61605A",
"T 	c #62615B",
"U 	c #63625C",
"V 	c #64635D",
"W 	c #61605B",
"X 	c #62615D",
"Y 	c #403F3B",
"Z 	c #3C3B38",
"` 	c #565550",
" .	c #5F5E59",
"..	c #5E5D58",
"+.	c #5E5D57",
"@.	c #5C5B56",
"#.	c #484742",
"$.	c #53534D",
"%.	c #5A5A54",
"&.	c #5A5955",
"*.	c #54544E",
"=.	c #494843",
"                                          ",
"                                          ",
"                . . . . .                 ",
"            . + @ # $ % & * .             ",
"        = - ; > , ' ) ' , ! ~ { =         ",
"        ] ^ / ( _ : < < _ ( / [ }         ",
"      . | 1 2 3 4 5 6 5 4 3 2 7 8 9       ",
"      0 < a a b c c c c c c a a < d       ",
"    e f g h i b j g g g j b i h g k .     ",
"    . l m n n b o o p o o b n n m i .     ",
"    . q r r s b p p p p p b s r r i .     ",
"    . t u k v b s p p p p b v k u w .     ",
"    . x y z A B v s s s r B A z y C e     ",
"    D E f F G H c c c c c c G F z I       ",
"      9 J K L M k v N v k A L K O 9       ",
"        P Q R S T U V V T W R X Y         ",
"        = Z `  ...+.+.+... .@.Y D         ",
"            . #.$.%.&.%.*.=.9             ",
"                e . . . e                 ",
"                                          ",
"                                          "};
