/* XPM */
static char * maximize_toggled_active_xpm[] = {
"21 21 103 2",
"  	c None",
". 	c #383733",
"+ 	c #53524E",
"@ 	c #777671",
"# 	c #878782",
"$ 	c #94938E",
"% 	c #888782",
"& 	c #787773",
"* 	c #555450",
"= 	c #373632",
"- 	c #41403B",
"; 	c #7C7B77",
"> 	c #93928D",
", 	c #91908B",
"' 	c #8E8D89",
") 	c #8C8B85",
"! 	c #94938D",
"~ 	c #807F7A",
"{ 	c #43423E",
"] 	c #41403C",
"^ 	c #878681",
"/ 	c #8D8D86",
"( 	c #888781",
"_ 	c #878780",
": 	c #878680",
"< 	c #86857F",
"[ 	c #898884",
"} 	c #41403D",
"| 	c #7A7A74",
"1 	c #898881",
"2 	c #84837D",
"3 	c #83827C",
"4 	c #82817B",
"5 	c #81807A",
"6 	c #807F79",
"7 	c #898882",
"8 	c #7D7C75",
"9 	c #393834",
"0 	c #51504C",
"a 	c #7F7E78",
"b 	c #7E7D76",
"c 	c #7C7B74",
"d 	c #7B7A73",
"e 	c #7A7973",
"f 	c #54544F",
"g 	c #373633",
"h 	c #6B6A64",
"i 	c #3E3D39",
"j 	c #3A3935",
"k 	c #706F69",
"l 	c #76756F",
"m 	c #787770",
"n 	c #77766F",
"o 	c #777670",
"p 	c #73726B",
"q 	c #74736C",
"r 	c #75746D",
"s 	c #6F6E69",
"t 	c #706F68",
"u 	c #72716A",
"v 	c #73726C",
"w 	c #605F5B",
"x 	c #6D6C66",
"y 	c #6C6B65",
"z 	c #6E6D67",
"A 	c #3E3D38",
"B 	c #64635E",
"C 	c #363532",
"D 	c #4C4B46",
"E 	c #686761",
"F 	c #6A6962",
"G 	c #75746E",
"H 	c #767670",
"I 	c #75746F",
"J 	c #73736D",
"K 	c #4E4D48",
"L 	c #5F5F5A",
"M 	c #66655F",
"N 	c #64645E",
"O 	c #6A6963",
"P 	c #61615B",
"Q 	c #3F3E3B",
"R 	c #61605C",
"S 	c #62625C",
"T 	c #61605A",
"U 	c #62615B",
"V 	c #63625C",
"W 	c #64635D",
"X 	c #61605B",
"Y 	c #62615D",
"Z 	c #403F3B",
"` 	c #3C3B38",
" .	c #565550",
"..	c #5F5E59",
"+.	c #5E5D58",
"@.	c #5E5D57",
"#.	c #5C5B56",
"$.	c #484742",
"%.	c #53534D",
"&.	c #5A5A54",
"*.	c #5A5955",
"=.	c #54544E",
"-.	c #494843",
"                                          ",
"                                          ",
"                . . . . .                 ",
"            . + @ # $ % & * .             ",
"        = - ; > , ' ) ' , ! ~ { =         ",
"        ] ^ / ( _ : < < _ ( / [ }         ",
"      . | 1 2 3 4 5 6 5 4 3 2 7 8 9       ",
"      0 < a a b c d e d c b a a < f       ",
"    g h b d e i j j j j j j e d b k .     ",
"    . l m n n i 8 8 c 8 8 i n n m e .     ",
"    . o p p q i r r r r r i q p p e .     ",
"    . s t k u i q r r r r i u k t v .     ",
"    . w x y z A j j j j j j z y x B g     ",
"    C D h E F p G H @ H I J F E y K       ",
"      9 L M N M E F O F E M N M P 9       ",
"        Q R S T U V W W U X S Y Z         ",
"        = `  ...+.@.@.@.+...#.Z C         ",
"            . $.%.&.*.&.=.-.9             ",
"                g . . . g                 ",
"                                          ",
"                                          "};
