/* XPM */
static char * maximize_toggled_pressed_xpm[] = {
"21 21 46 1",
" 	c None",
".	c #3C3B37",
"+	c #4B4A45",
"@	c #605F59",
"#	c #6A6962",
"$	c #706F69",
"%	c #61605A",
"&	c #4C4B46",
"*	c #41403B",
"=	c #65645E",
"-	c #75746D",
";	c #686760",
">	c #43423D",
",	c #6F6E67",
"'	c #717069",
")	c #42413D",
"!	c #686761",
"~	c #76756E",
"{	c #6B6A63",
"]	c #3D3C38",
"^	c #4D4C47",
"/	c #504F4A",
"(	c #62615C",
"_	c #3A3935",
":	c #67665F",
"<	c #72716B",
"[	c #777670",
"}	c #71706A",
"|	c #676660",
"1	c #52514C",
"2	c #77766F",
"3	c #565550",
"4	c #6E6D67",
"5	c #3E3D38",
"6	c #464541",
"7	c #484743",
"8	c #44433F",
"9	c #6B6A64",
"0	c #787770",
"a	c #494843",
"b	c #6C6B65",
"c	c #797972",
"d	c #7A7972",
"e	c #6E6D66",
"f	c #585752",
"g	c #3E3D39",
"                     ",
"                     ",
"        .....        ",
"      .+@#$#%&.      ",
"     *=-------;>     ",
"    *,---------')    ",
"   .!----------~{]   ",
"   ^~-----------~/   ",
"  .(~--]______--~:.  ",
"  .,---]-----]---<.  ",
"  .----]-----]---[.  ",
"  .}---]-----]----.  ",
"  .|~--]______--~{.  ",
"   12-----------[3   ",
"   ]42---------2'5   ",
"    6~2-------227    ",
"     890~---~0<a     ",
"      .3bcdcefg      ",
"        .....        ",
"                     ",
"                     "};
