/* XPM */
static char * menu_inactive_xpm[] = {
"21 21 11 1",
" 	c None",
".	c #403F3C",
"+	c #403F3B",
"@	c #3F3E3B",
"#	c #3F3E3A",
"$	c #3E3D3A",
"%	c #3E3D39",
"&	c #3D3C39",
"*	c #3D3C38",
"=	c #3C3B38",
"-	c #3C3B37",
".....................",
".....................",
"+++++++++++++++++++++",
"@@@@@@@@@@@@@@@@@@@@@",
"@@@@@@@@@@@@@@@@@@@@@",
"@@@@@@@@@@@@@@@@@@@@@",
"@@@@@@@@@@@@@@@@@@@@@",
"#####################",
"$$$$$$$$$$$$$$$$$$$$$",
"$$$$$$$$$$$$$$$$$$$$$",
"$$$$$$$$$$$$$$$$$$$$$",
"%%%%%%%%%%%%%%%%%%%%%",
"%%%%%%%%%%%%%%%%%%%%%",
"%%%%%%%%%%%%%%%%%%%%%",
"&&&&&&&&&&&&&&&&&&&&&",
"&&&&&&&&&&&&&&&&&&&&&",
"*********************",
"*********************",
"*********************",
"=====================",
"---------------------"};
