/* XPM */
static char * menu_pressed_xpm[] = {
"21 21 21 1",
" 	c None",
".	c #4C4B46",
"+	c #4B4A45",
"@	c #4A4944",
"#	c #494843",
"$	c #484742",
"%	c #474641",
"&	c #464541",
"*	c #464540",
"=	c #45443F",
"-	c #44433F",
";	c #44433E",
">	c #43423D",
",	c #42413D",
"'	c #42413C",
")	c #41403C",
"!	c #403F3B",
"~	c #403F3A",
"{	c #3F3E3A",
"]	c #3E3D39",
"^	c #3E3D38",
".............++++++++",
"+++++++++++++@@@@@@@@",
"@@@@@@@@@@@@@@@@@@@@@",
"@@@@@@@@@@@@@########",
"#############$$$$$$$$",
"$$$$$$$$$$$$$$$$$$$$$",
"$$$$$$$$$$$$$%%%%%%%%",
"%%%%%%%%%%%%%&&&&&&&&",
"&&&&&&&&&&&&&********",
"*************========",
"=============--------",
"-------------;;;;;;;;",
";;;;;;;;;;;;;>>>>>>>>",
">>>>>>>>>>>>>,,,,,,,,",
",,,,,,,,,,,,,''''''''",
"'''''''''''''))))))))",
")))))))))))))!!!!!!!!",
"!!!!!!!!!!!!!~~~~~~~~",
"~~~~~~~~~~~~~{{{{{{{{",
"{{{{{{{{{{{{{]]]]]]]]",
"]]]]]]]]]]]]]^^^^^^^^"};
