/* XPM */
static char * title_inactive_xpm[] = {
"8 30 13 1",
" 	c None",
".	c #3C3B37",
"+	c #3C3B38",
"@	c #3B3B3B",
"#	c #3D3C38",
"$	c #3D3C39",
"%	c #3E3D39",
"&	c #3E3D3A",
"*	c #3F3E3A",
"=	c #3F3E3B",
"-	c #403F3B",
";	c #403F3C",
">	c #464541",
"........",
">>>>>>>>",
";;;;;;;;",
";;;;;;;;",
";;;;;;;;",
";;;;;;;;",
"--------",
"========",
"========",
"========",
"========",
"********",
"&&&&&&&&",
"&&&&&&&&",
"&&&&&&&&",
"%%%%%%%%",
"%%%%%%%%",
"%%%%%%%%",
"$$$$$$$$",
"$$$$$$$$",
"########",
"########",
"########",
"++++++++",
"........",
"........",
"........",
"........",
"........",
"@@@@@@@@"};
