/* XPM */
static char * top_left_active_xpm[] = {
"6 30 27 1",
" 	c None",
".	c #3C3B37",
"+	c #6A675F",
"@	c #6A685F",
"#	c #4D4C47",
"$	c #4C4B46",
"%	c #4B4A45",
"&	c #4A4944",
"*	c #494843",
"=	c #484742",
"-	c #474641",
";	c #464541",
">	c #464540",
",	c #45443F",
"'	c #44433F",
")	c #44433E",
"!	c #43423D",
"~	c #42413D",
"{	c #42413C",
"]	c #41403C",
"^	c #403F3B",
"/	c #403F3A",
"(	c #3F3E3A",
"_	c #3E3D39",
":	c #3E3D38",
"<	c #3D3C38",
"[	c #1B1B1B",
"......",
".++++@",
".#####",
".$$$$$",
".$$$$$",
".%%%%%",
".&&&&&",
".&&&&&",
".*****",
".=====",
".=====",
".-----",
".;;;;;",
".>>>>>",
".,,,,,",
".'''''",
".)))))",
".!!!!!",
".~~~~~",
".{{{{{",
".]]]]]",
".^^^^^",
"./////",
".(((((",
"._____",
".:::::",
".<<<<<",
"......",
"......",
"....[["};
